<?xml version="1.0" encoding="UTF-8"?>
<svg xmlns="http://www.w3.org/2000/svg" viewBox="0 0 1000 1000" role="img" aria-labelledby="title">
  <title id="title">Machine Spirit logo concept 04: Core Wing D</title>
  <g color="#141412" transform="translate(0 240)"><g fill="currentColor"><path d="M4.29 5.74 Q0 0 7.16 0.00 L383.84 0.00 Q391 0 391.00 7.16 L391.00 95.45 Q391 102.61333333333333 383.84 102.61 L83.83 102.61 Q76.66666666666667 102.61333333333333 72.38 96.88 Z"/><path d="M927.62 96.88 Q923.3333333333334 102.61333333333333 916.17 102.61 L616.16 102.61 Q609 102.61333333333333 609.00 95.45 L609.00 7.16 Q609 0 616.16 0.00 L992.84 0.00 Q1000 0 995.71 5.74 Z"/><path d="M83.93 147.19 Q79 142 86.16 142.00 L382.84 142.00 Q390 142 390.00 149.16 L390.00 217.72 Q390 224.88 382.84 224.88 L164.83 224.88 Q157.66666666666669 224.88 152.74 219.69 Z"/><path d="M847.26 219.69 Q842.3333333333333 224.88 835.17 224.88 L617.16 224.88 Q610 224.88 610.00 217.72 L610.00 149.16 Q610 142 617.16 142.00 L913.84 142.00 Q921 142 916.07 147.19 Z"/><path d="M178.99 283.13 Q174 278 181.16 278.00 L383.84 278.00 Q391 278 391.00 285.16 L391.00 353.72 Q391 360.88 383.84 360.88 L261.83 360.88 Q254.66666666666669 360.88 249.67 355.75 Z"/><path d="M750.33 355.75 Q745.3333333333333 360.88 738.17 360.88 L616.16 360.88 Q609 360.88 609.00 353.72 L609.00 285.16 Q609 278 616.16 278.00 L818.84 278.00 Q826 278 821.01 283.13 Z"/><path d="M288.39 424.71 Q283 420 290.16 420.00 L382.84 420.00 Q390 420 390.00 427.16 L390.00 497.75 Q390 500.90666666666664 386.85 500.91 L378.82 500.91 Q375.6666666666667 500.90666666666664 373.29 498.83 Z"/><path d="M626.71 498.83 Q624.3333333333333 500.90666666666664 621.18 500.91 L613.15 500.91 Q610 500.90666666666664 610.00 497.75 L610.00 427.16 Q610 420 617.16 420.00 L709.84 420.00 Q717 420 711.61 424.71 Z"/><rect x="469.172" y="153.172" width="61.656" height="61.656" rx="7.16"/></g></g>
</svg>
