<?xml version="1.0" encoding="UTF-8"?>
<svg xmlns="http://www.w3.org/2000/svg" viewBox="0 0 1000 1000" role="img" aria-labelledby="title">
  <title id="title">Machine Spirit logo concept 64: Relay D</title>
  <g color="#141412" transform="translate(0 240)"><g fill="currentColor"><path d="M5.13 6.34 Q0 0 8.16 0.00 L377.84 0.00 Q386 0 386.00 8.16 L386.00 66.83 Q386 74.98666666666666 377.84 74.99 L68.83 74.99 Q60.666666666666664 74.98666666666666 55.53 68.64 Z"/><path d="M944.47 68.64 Q939.3333333333334 74.98666666666666 931.17 74.99 L622.16 74.99 Q614 74.98666666666666 614.00 66.83 L614.00 8.16 Q614 0 622.16 0.00 L991.84 0.00 Q1000 0 994.87 6.34 Z"/><path d="M68.76 118.02 Q63.25 112 71.41 112.00 L376.84 112.00 Q385 112 385.00 120.16 L385.00 178.83 Q385 186.98666666666668 376.84 186.99 L140.08 186.99 Q131.91666666666669 186.98666666666668 126.41 180.97 Z"/><path d="M873.59 180.97 Q868.0833333333333 186.98666666666668 859.92 186.99 L623.16 186.99 Q615 186.98666666666668 615.00 178.83 L615.00 120.16 Q615 112 623.16 112.00 L928.59 112.00 Q936.75 112 931.24 118.02 Z"/><path d="M143.33 229.71 Q137.5 224 145.66 224.00 L377.84 224.00 Q386 224 386.00 232.16 L386.00 290.83 Q386 298.9866666666667 377.84 298.99 L222.33 298.99 Q214.16666666666669 298.9866666666667 208.33 293.28 Z"/><path d="M791.67 293.28 Q785.8333333333333 298.9866666666667 777.67 298.99 L622.16 298.99 Q614 298.9866666666667 614.00 290.83 L614.00 232.16 Q614 224 622.16 224.00 L854.34 224.00 Q862.5 224 856.67 229.71 Z"/><path d="M229.86 341.41 Q223.75 336 231.91 336.00 L376.84 336.00 Q385 336 385.00 344.16 L385.00 402.83 Q385 410.9866666666667 376.84 410.99 L316.58 410.99 Q308.4166666666667 410.9866666666667 302.31 405.58 Z"/><path d="M697.69 405.58 Q691.5833333333333 410.9866666666667 683.42 410.99 L623.16 410.99 Q615 410.9866666666667 615.00 402.83 L615.00 344.16 Q615 336 623.16 336.00 L768.09 336.00 Q776.25 336 770.14 341.41 Z"/><path d="M326.72 452.63 Q320 448 328.16 448.00 L377.84 448.00 Q386 448 386.00 456.16 L386.00 504.19 Q386 509.17333333333335 390.99 509.17 L403.68 509.17 Q408.6666666666667 509.17333333333335 404.56 506.34 Z"/><path d="M595.44 506.34 Q591.3333333333333 509.17333333333335 596.32 509.17 L609.01 509.17 Q614 509.17333333333335 614.00 504.19 L614.00 456.16 Q614 448 622.16 448.00 L671.84 448.00 Q680 448 673.28 452.63 Z"/><rect x="455.3728" y="137.72752" width="89.2544" height="24.54496" rx="8.16"/></g></g>
</svg>
