<svg width="1019" height="343" viewBox="0 0 1019 343" fill="none" xmlns="http://www.w3.org/2000/svg" data-component="wordmark" aria-hidden="true"><path d="M243.946 280.197V172.466C243.946 124.64 217.378 91.7888 162.31 91.7886C125.597 91.7886 102.409 104.349 89.3661 122.224V0H0V24.1542H2.41553C26.0853 24.1543 36.2301 34.3 36.2302 57.9714V280.197C36.2302 303.869 26.0854 314.014 2.41553 314.014H0V338.169H125.596V314.014H123.181C99.5108 314.014 89.3661 303.869 89.3661 280.197V176.331C89.3661 144.447 105.791 128.988 140.088 128.988C174.386 128.988 190.81 143.481 190.81 176.331V280.197C190.81 303.869 180.665 314.014 156.995 314.014H154.58V338.169H280.176V314.014H277.761C254.091 314.014 243.946 303.869 243.946 280.197ZM498.644 280.197V169.084C498.644 114.977 457.583 91.7886 405.413 91.7886C341.648 91.7886 304.233 124.64 304.233 160.389C304.233 176.814 315.826 187.925 331.284 187.925C346.742 187.925 358.818 176.814 358.818 157.973C358.818 133.336 371.598 118.359 400.582 118.359C429.082 118.359 445.506 132.369 445.506 157.973V175.848L349.157 214.979C313.411 228.988 299.885 252.661 299.885 280.68C299.885 316.43 327.419 343 375.242 343C406.641 343 430.048 333.821 445.506 313.531V338.169H534.874V314.014H532.458C508.788 314.014 498.644 303.869 498.644 280.197ZM445.506 262.805C445.506 293.241 420.168 308.216 396.014 308.217C370.412 308.217 353.022 292.758 353.022 269.086C353.022 248.313 366.064 234.303 391.183 224.641L445.506 201.935V262.805ZM828.19 280.197V0H738.824V24.1542H741.238C764.908 24.1542 775.052 34.2999 775.052 57.9714V280.197C775.052 303.869 764.908 314.014 741.238 314.014H738.824V338.169H864.419V314.014H862.005C838.335 314.014 828.19 303.869 828.19 280.197ZM711.292 91.7886C696.318 91.7887 685.339 99.0353 674.711 108.214L644.279 135.75V96.62H554.912V120.774H557.326C580.996 120.774 591.141 130.92 591.141 154.591V280.197C591.141 303.869 580.997 314.014 557.326 314.014H554.912V338.169H689.686V314.014H678.093C654.423 314.014 644.279 303.869 644.279 280.197V181.161C644.279 160.389 657.322 147.346 678.093 147.346H710.326C728.682 147.346 741.725 135.75 741.725 119.325C741.725 102.9 729.648 91.7886 711.292 91.7886ZM1016.58 314.014C992.915 314.014 978.422 305.319 964.413 285.995L903.547 203.868C885.674 179.713 899.683 147.346 931.565 147.346H959.099C977.455 147.346 990.498 135.75 990.498 119.325C990.498 102.9 978.421 91.7886 960.065 91.7886C937.845 91.7887 922.387 103.866 903.064 124.639L834.469 199.036L936.879 338.169H1019V314.014H1016.58Z" fill="currentcolor"></path></svg>