<svg xmlns="http://www.w3.org/2000/svg" width="100%" viewBox="0 0 704 85" fill="none" class="icon cc-wordmark"><path d="M650.963 82.8496V23.9197H664.517V30.9913C665.931 28.8698 668.17 26.984 671.235 25.334C674.299 23.6054 677.953 22.7411 682.196 22.7411C689.11 22.7411 694.453 24.8626 698.225 29.1055C702.075 33.3485 704 39.0843 704 46.3131V82.8496H689.857V48.081C689.857 39.045 686.124 34.5271 678.66 34.5271C674.103 34.5271 670.685 35.9414 668.406 38.77C666.206 41.5987 665.106 45.4881 665.106 50.4382V82.8496H650.963Z" fill="currentColor"></path><path d="M615.066 84.0283C609.33 84.0283 604.184 82.7711 599.626 80.2567C595.069 77.7424 591.494 74.1673 588.901 69.5315C586.308 64.8957 585.012 59.5134 585.012 53.3847C585.012 47.5702 586.308 42.3451 588.901 37.7093C591.573 32.9949 595.187 29.3413 599.744 26.7483C604.301 24.0768 609.409 22.7411 615.066 22.7411C620.723 22.7411 625.831 24.0768 630.388 26.7483C634.945 29.3413 638.52 32.9949 641.113 37.7093C643.785 42.3451 645.12 47.5702 645.12 53.3847C645.12 59.5134 643.824 64.8957 641.231 69.5315C638.638 74.1673 635.063 77.7424 630.506 80.2567C625.948 82.7711 620.802 84.0283 615.066 84.0283ZM615.066 72.2423C620.095 72.2423 623.984 70.5922 626.734 67.2921C629.563 63.9135 630.977 59.2777 630.977 53.3847C630.977 47.9631 629.523 43.4844 626.616 39.9486C623.788 36.3343 619.938 34.5271 615.066 34.5271C610.194 34.5271 606.305 36.3343 603.398 39.9486C600.569 43.4844 599.155 47.9631 599.155 53.3847C599.155 59.2777 600.53 63.9135 603.28 67.2921C606.109 70.5922 610.037 72.2423 615.066 72.2423Z" fill="currentColor"></path><path d="M571.992 17.4367C569.635 17.4367 567.67 16.6509 566.099 15.0795C564.527 13.508 563.742 11.5437 563.742 9.18648C563.742 6.82928 564.527 4.86494 566.099 3.29348C567.67 1.72201 569.635 0.936279 571.992 0.936279C574.349 0.936279 576.313 1.72201 577.885 3.29348C579.456 4.86494 580.242 6.82928 580.242 9.18648C580.242 11.5437 579.456 13.508 577.885 15.0795C576.313 16.6509 574.349 17.4367 571.992 17.4367ZM579.063 82.8489H564.92V23.919H579.063V82.8489Z" fill="currentColor"></path><path d="M550.178 83.4388C544.599 83.4388 540.356 82.2209 537.449 79.7852C534.542 77.2708 533.088 73.185 533.088 67.5277V35.1163H523.07V24.5089H524.249C528.256 24.5089 531.006 23.8017 532.499 22.3874C534.071 20.9731 534.856 18.7337 534.856 15.6694V8.59778H547.232V23.9196H560.196V35.1163H547.232V65.7598C547.232 68.5099 547.86 70.3957 549.117 71.4171C550.375 72.36 552.3 72.8314 554.892 72.8314H560.196V82.8495C556.503 83.2424 553.164 83.4388 550.178 83.4388Z" fill="currentColor"></path><path d="M494.807 84.0283C489.071 84.0283 483.925 82.7711 479.368 80.2567C474.81 77.7424 471.235 74.1673 468.642 69.5315C466.049 64.8957 464.753 59.5134 464.753 53.3847C464.753 47.5702 466.049 42.3451 468.642 37.7093C471.314 32.9949 474.928 29.3413 479.485 26.7483C484.043 24.0768 489.15 22.7411 494.807 22.7411C500.464 22.7411 505.572 24.0768 510.129 26.7483C514.686 29.3413 518.261 32.9949 520.854 37.7093C523.526 42.3451 524.861 47.5702 524.861 53.3847C524.861 59.5134 523.565 64.8957 520.972 69.5315C518.379 74.1673 514.804 77.7424 510.247 80.2567C505.69 82.7711 500.543 84.0283 494.807 84.0283ZM494.807 72.2423C499.836 72.2423 503.725 70.5922 506.475 67.2921C509.304 63.9135 510.718 59.2777 510.718 53.3847C510.718 47.9631 509.265 43.4844 506.357 39.9486C503.529 36.3343 499.679 34.5271 494.807 34.5271C489.936 34.5271 486.046 36.3343 483.139 39.9486C480.31 43.4844 478.896 47.9631 478.896 53.3847C478.896 59.2777 480.271 63.9135 483.021 67.2921C485.85 70.5922 489.779 72.2423 494.807 72.2423Z" fill="currentColor"></path><path d="M382.794 82.8487H368.651V5.06116H391.634L412.259 66.3483L433.474 5.06116H455.867V82.8487H441.724V18.0258L419.331 82.8487H405.187L382.794 18.0258V82.8487Z" fill="currentColor"></path><path d="M318.125 83.4388C312.546 83.4388 308.303 82.2209 305.396 79.7852C302.489 77.2708 301.035 73.185 301.035 67.5277V35.1163H291.017V24.5089H292.196C296.203 24.5089 298.953 23.8017 300.446 22.3874C302.017 20.9731 302.803 18.7337 302.803 15.6694V8.59778H315.178V23.9196H328.143V35.1163H315.178V65.7598C315.178 68.5099 315.807 70.3957 317.064 71.4171C318.321 72.36 320.246 72.8314 322.839 72.8314H328.143V82.8495C324.45 83.2424 321.111 83.4388 318.125 83.4388Z" fill="currentColor"></path><path d="M235.66 82.8496V23.9197H249.214V30.9913C250.628 28.8698 252.867 26.984 255.932 25.334C258.996 23.6054 262.65 22.7411 266.893 22.7411C273.807 22.7411 279.15 24.8626 282.921 29.1055C286.772 33.3485 288.697 39.0843 288.697 46.3131V82.8496H274.553V48.081C274.553 39.045 270.821 34.5271 263.357 34.5271C258.799 34.5271 255.382 35.9414 253.103 38.77C250.903 41.5987 249.803 45.4881 249.803 50.4382V82.8496H235.66Z" fill="currentColor"></path><path d="M229.748 58.0991H186.729C187.436 62.9706 189.243 66.6635 192.151 69.1779C195.058 71.6137 198.554 72.8316 202.64 72.8316C205.94 72.8316 208.808 72.0458 211.244 70.4744C213.68 68.8243 215.526 66.7028 216.783 64.1099L228.569 68.7065C223.462 78.921 214.819 84.0283 202.64 84.0283C196.59 84.0283 191.286 82.8104 186.729 80.3746C182.25 77.8602 178.754 74.2852 176.24 69.6493C173.804 65.0135 172.586 59.592 172.586 53.3847C172.586 47.5702 173.804 42.3451 176.24 37.7093C178.675 32.9949 182.093 29.3412 186.493 26.7483C190.894 24.0768 195.883 22.7411 201.462 22.7411C210.498 22.7411 217.451 25.6876 222.323 31.5806C227.273 37.4736 229.748 45.5273 229.748 55.7419V58.0991ZM215.605 48.081C215.605 43.7594 214.23 40.3415 211.48 37.8272C208.808 35.2342 205.469 33.9378 201.462 33.9378C197.533 33.9378 194.272 35.1557 191.679 37.5914C189.165 39.9486 187.515 43.4452 186.729 48.081H215.605Z" fill="currentColor"></path><path d="M159.567 17.4367C157.209 17.4367 155.245 16.6509 153.674 15.0795C152.102 13.508 151.316 11.5437 151.316 9.18648C151.316 6.82928 152.102 4.86495 153.674 3.29348C155.245 1.72201 157.209 0.936279 159.567 0.936279C161.924 0.936279 163.888 1.72201 165.46 3.29348C167.031 4.86495 167.817 6.82928 167.817 9.18648C167.817 11.5437 167.031 13.508 165.46 15.0795C163.888 16.6509 161.924 17.4367 159.567 17.4367ZM166.638 82.8489H152.495V23.919H166.638V82.8489Z" fill="currentColor"></path><path d="M143.011 82.8493H128.868V2.70459H143.011V82.8493Z" fill="currentColor"></path><path d="M89.3383 84.0283C85.4097 84.0283 81.8346 83.2818 78.6131 81.7889C75.3916 80.296 72.8379 78.2138 70.9522 75.5423C69.0664 72.8708 68.1235 69.8065 68.1235 66.3493C68.1235 61.242 69.7736 57.2348 73.0737 54.3275C76.4523 51.4203 81.0881 49.5346 86.9811 48.6703L98.7671 46.9024C100.967 46.5095 102.696 45.9202 103.953 45.1345C105.21 44.2702 105.839 42.8951 105.839 41.0094C105.839 38.5736 104.817 36.6878 102.774 35.3521C100.81 34.0164 98.4921 33.3485 95.8206 33.3485C92.2062 33.3485 89.299 34.2521 87.099 36.0593C84.9775 37.8664 83.7596 40.4987 83.4453 43.9559H69.3021C69.3021 39.7129 70.4414 35.9807 72.7201 32.7592C74.9987 29.5377 78.1416 27.0626 82.1489 25.334C86.1561 23.6054 90.7133 22.7411 95.8206 22.7411C103.521 22.7411 109.571 24.7054 113.971 28.6341C118.371 32.5628 120.571 38.0629 120.571 45.1345V82.8496H107.017V75.7781C103.167 81.2782 97.2742 84.0283 89.3383 84.0283ZM92.2848 73.4209C96.0563 73.4209 99.3564 72.2423 102.185 69.8851C105.014 67.5279 106.428 64.3849 106.428 60.4563V55.1526L95.2313 56.9205C91.2241 57.5491 88.1597 58.4919 86.0382 59.7491C83.9168 61.0063 82.856 63.0099 82.856 65.76C82.856 68.2743 83.7596 70.1993 85.5668 71.5351C87.4526 72.7923 89.6919 73.4209 92.2848 73.4209Z" fill="currentColor"></path><path d="M32.2231 84.028C22.7157 84.028 15.0941 81.7887 9.35823 77.31C3.70096 72.8313 0.715172 66.6241 0.400879 58.6882H15.1334C15.4477 62.4597 17.1763 65.5633 20.3192 67.9991C23.4621 70.4349 27.8229 71.6527 33.4017 71.6527C38.116 71.6527 41.9269 70.592 44.8341 68.4705C47.8198 66.349 49.3127 63.6776 49.3127 60.456C49.3127 58.4131 48.6842 56.8024 47.427 55.6238C46.2484 54.3666 44.5983 53.3845 42.4769 52.6773C40.3554 51.9701 37.3303 51.2237 33.4017 50.438L27.5087 49.2594C22.1657 48.1593 17.7263 47.02 14.1905 45.8414C10.7333 44.5843 7.74748 42.5413 5.23314 39.7127C2.79736 36.8841 1.57948 32.9947 1.57948 28.0446C1.57948 20.423 4.29026 14.4907 9.71181 10.2477C15.2119 6.00478 22.7157 3.8833 32.2231 3.8833C41.1804 3.8833 48.4484 6.04407 54.0271 10.3656C59.6058 14.6085 62.5523 20.5015 62.8666 28.0446H48.1341C47.8199 24.4302 46.1698 21.5623 43.184 19.4408C40.2768 17.3193 36.2303 16.2586 31.0445 16.2586C26.7229 16.2586 23.1871 17.1622 20.4371 18.9694C17.687 20.698 16.312 23.1337 16.312 26.2767C16.312 28.3982 16.9798 30.0875 18.3156 31.3447C19.6513 32.6018 21.3799 33.584 23.5014 34.2911C25.6229 34.9197 28.5301 35.5876 32.2231 36.2948L38.1161 37.4734C43.459 38.5734 47.8591 39.752 51.3164 41.0092C54.8522 42.1878 57.8379 44.1914 60.2737 47.02C62.7881 49.8487 64.0452 53.738 64.0452 58.6882C64.0452 66.6241 61.2166 72.8313 55.5593 77.31C49.9806 81.7887 42.2019 84.028 32.2231 84.028Z" fill="currentColor"></path></svg>