<svg xmlns="http://www.w3.org/2000/svg" viewBox="0 0 1536 1304">
  <path fill="#f7f6f2" d="M400 23 734 0l186 299-141 326-335 23-188-301Z"/>
  <path fill="#f7f6f2" d="M8 360 210 387l190 301-8 271-201-23L0 636Z"/>
  <path fill="#f7f6f2" d="m991 328 346-64 198 255-144 328-346 65-198-258Z"/>
  <path fill="#aa575a" d="m449 721 341-25 201 264-216 185-335-148Z"/>
  <path fill="#f7f6f2" d="m225 1015 197 27 329 143 128 119-199-27-327-143Z"/>
  <path fill="#f7f6f2" d="m832 1160 212-182 346-66 129 117-214 186-347 64Z"/>
</svg>
